<?xml version="1.0" encoding="UTF-8"?>
<svg id="Layer_1" data-name="Layer 1" xmlns="http://www.w3.org/2000/svg" viewBox="0 0 48 48">
  <defs>
    <style>
      .cls-1 {
        fill: #465246;
      }

      .cls-2 {
        fill: #e0e0e0;
      }
    </style>
  </defs>
  <rect class="cls-1" width="48" height="48" rx="12" ry="12"/>
  <g>
    <path class="cls-2" d="M19.8,28.52h-11.42l-3.58,7.88h-1.93L14.17,11.67l11.14,24.73h-1.93l-3.58-7.88ZM19.16,27.08l-5.03-11.38-5.11,11.38h10.13Z"/>
    <path class="cls-2" d="M25.47,36.4V12.39h5.31c2.37,0,6.51.32,9.89,3.35,2.86,2.56,3.86,6.05,3.86,8.68s-1,6.08-3.86,8.64c-3.38,3.02-7.52,3.35-9.89,3.35h-5.31ZM27.24,34.96h3.5c7.08,0,11.94-4.32,11.94-10.55s-4.91-10.58-11.94-10.58h-3.5v21.13Z"/>
  </g>
</svg>