<?xml version="1.0" encoding="UTF-8"?>
<svg xmlns="http://www.w3.org/2000/svg" viewBox="0 0 329.98 547.53">
  <defs>
    <style>
      .cls-1 {
        opacity: .6;
      }

      .cls-1, .cls-2 {
        fill: #e0e0e0;
      }

      .cls-3 {
        stroke-width: 6px;
      }

      .cls-3, .cls-4, .cls-5 {
        fill: none;
        stroke: #fff;
        stroke-miterlimit: 10;
      }

      .cls-6 {
        fill: #231f20;
      }

      .cls-4 {
        stroke-width: 4px;
      }

      .cls-7 {
        fill: #7db89d;
      }

      .cls-8 {
        opacity: .75;
      }

      .cls-5 {
        stroke-width: 2px;
      }
    </style>
  </defs>
  <g id="Layer_7" data-name="Layer 7">
    <rect class="cls-2" width="329.98" height="547.53"/>
    <path class="cls-7" d="M349.98,501.33c-17.84,2.09-90.78,10.55-122,14.19-2.78.24-4.49.9-4.97-.63-.48-1.89.05-3.94-.07-5.89.09-4.46-3.52-4.96-7.48-4.52-4.08.34-8.76.88-12.87,1.24-2.26.19-4.39.29-6.58.04-4.98-.54-8.31-2.81-13.39-3.28-6.66-.66-14,1.18-20.13,1.07-3.45-.04-6.08-1.21-9.45-2.41-2.76-1.01-6.28-2.29-10.1-3.69-7.03-2.57-14.68-5.36-21.7-7.92-5.11-1.66-11.69-5.04-16.19-4.55-31.21.52-92.14,1.5-110.06,1.82l-1.45,64.05,362.41,6.12-5.97-55.64Z"/>
  </g>
  <g id="Layer_1" data-name="Layer 1">
    <path class="cls-4" d="M-6.46,400.27c30.55-.74,67.86-1.99,98.52-2.68,7-.17,11.6-.21,18.62.45,9.44.92,19.18,2.17,28.62,3.25,8.72,1,16.67,2.16,25.23,1.96,20.87-1.11,44.49-4.33,65.24-6.11,9.17-.98,17.9.11,26.71,2.7,29.16,8.29,64.38,18.41,93.48,26.69,4.85,1.41,8.9,2.46,14.35,2.64,16.59.1,33.53-2.07,50-1.13,10.73.66,21.45-1.08,31.16-5.77,10.64-4.46,20.53-9.66,27.15-19.08,5.01-6.89,10.87-13.06,18.55-16.92,20.29-10.27,42.99-21.23,63.34-31.34"/>
    <path class="cls-3" d="M-12.69,430.09c.33,5.09.65,10.19.98,15.28,1.05,10.68-.39,22.2,9.17,27.82,2.92,1.57,6.67,2.22,10.86,2.39,89.22-.8,178.63-2.28,267.9-3.3,9.24-.07,18.25-.19,27.08-2.81,16.54-4.71,28.73-12.91,45.07-15.2,30.14-5.6,64.5-12.12,95.21-17.85,8.73-1.78,15.11-1.87,22.93-7.19,7.37-4.55,14.6-9.11,22.16-13.84,18.2-11.38,38.93-24.46,56.35-35.26"/>
    <line class="cls-4" x1="254.09" y1="160.11" x2="264.08" y2="401.99"/>
    <line class="cls-4" x1="237.65" y1="160.5" x2="242.92" y2="395.95"/>
    <line class="cls-5" x1="183.57" y1="401.81" x2="177.1" y2="159.6"/>
    <path class="cls-5" d="M238.62,203.71s17.25-.76,17.25-.76c3.48,1.53,6.8,3.76,10.62,4.39,2.71.44,5.49.65,8.22.99"/>
    <path class="cls-5" d="M105.35,397.64c-.52-9.96-1-21.77-1.49-31.88-.17-4.21-.24-6.89.25-8.2.57-1.55,2.05-1.49,3.57-1.6,29.7-.26,117.65-5.27,148.02-3.21,9.17.53,18.08-.12,27.27-.64"/>
    <path class="cls-5" d="M38.27,243.65c17.17,1.08,38.24,2.43,56.25,3.57,6.23.39,12.05.77,18.06,1.14,4.17.43,4.25-.78,5.09-4.09,6.47-25.7,13.9-55.14,20.19-80.18"/>
    <path class="cls-5" d="M83.53,246.51l-.38,7.94-.93,19.44c-.39,8.13-.78,16.25-1.17,24.38l-1.09,22.75c-.23,4.85-.61,9.71-.7,14.56-.05,2.69-1.38,4.84-2.49,7.19l-2.33,4.91-5.74,12.1c-3.03,6.37-6.05,12.75-9.08,19.12l-.38.8"/>
    <polyline class="cls-5" points="109.37 248.15 114.04 281.31 81.9 280.46"/>
    <line class="cls-5" x1="118.25" y1="355.72" x2="114.04" y2="281.31"/>
    <path class="cls-5" d="M261.19,331.97c-37.78,1.14-122.47,4.15-142.96,4.54-4.88-.38-10.48.56-15.89,2.42-4.23,1.54-7.78,4.24-10.86,7.51-4.03,4.14-10.38,10.74-14.88,15.4-2.23,2.34-4.46,4.75-6.1,7.46-2.91,5.44-1.55,13.21-12.37,10.12-17.33-4.95-57.07-16.65-74.45-21.36"/>
    <path class="cls-5" d="M110,309.88c-.03-1.97-.17-3.96-.14-5.92.04-1.08.9-1.47,1.92-1.42,42.93.09,86.05.2,129.05.3"/>
    <polyline class="cls-5" points="134.43 336.08 134.84 235.06 239.27 232.97"/>
    <line class="cls-5" x1="240.04" y1="267.48" x2="134.71" y2="267.67"/>
    <path class="cls-5" d="M263.19,380.27c5.61.83,10.4.8,15.16,2.9,9.71,4.62,36.63,17.64,45.83,22.08,3.04,1.27,2.66,3.11.97,5.96-1.14,1.99-2.77,4.42-4.39,6.98"/>
    <line class="cls-5" x1="304.23" y1="395.76" x2="299.93" y2="470.34"/>
    <path class="cls-5" d="M205.94,473.15c3.68-15.61,8.13-29.63,7.91-45.82-.13-9.54-.27-19.07-.4-28.61l-4.91-240.3"/>
    <path class="cls-4" d="M79,474.82c2.39-8.34,4.2-18.55,14.25-16.46,15.12,4.36,29.79,10.63,44.71,15.7"/>
    <path class="cls-4" d="M223.46,157.73c.92-1.29,2.44-2.51,2.76-4.14.16-.8-.02-1.78-.06-2.61l-.25-6.77-.56-15.07-.12-3.15"/>
    <path class="cls-5" d="M227.14,333.76s-3.68-176.03-3.68-176.03"/>
    <line class="cls-5" x1="196.37" y1="334.07" x2="192.83" y2="163.96"/>
    <path class="cls-4" d="M122.74,72.09c-1.67-6.53-3.35-13.04-5.02-19.63l-6.85-7.85c-1.7-1.95-3.4-3.91-5.11-5.86-2.71-3.08-4.26-5.76-5.52-9.62l-2.71-8.3L90.87.42l-4.91-15.06"/>
    <path class="cls-5" d="M148.2,91.03c.55,1.45.5,3.06.55,4.71.09,12.34.62,43.03.58,55.32.22,6.94-6.95,14.41-13.94,12.84-3.08-.64-3.71-5.66-3.71-8.85-.13-6.22-.28-15.62-.38-21.45,0-9.09-1.17-17.98-2.04-27.16-.67-6.76-1.13-13.19-2.75-19.41-1.25-5.02-2.51-9.98-3.77-14.92"/>
    <path class="cls-4" d="M122.35,70.63c6.3,4.61,13.62,9.97,20.02,14.65,2.48,1.84,4.17,3.16,5.08,4.4.33.43.57.88.75,1.35"/>
    <polyline class="cls-5" points="145.01 160.72 148.87 402.41 150.19 454.16"/>
    <line class="cls-5" x1="129.68" y1="400.16" x2="128.78" y2="373.35"/>
    <path class="cls-5" d="M261.19,331.97c4.12-1.07,9.17-1.08,12.81-3.17.91-.62,1.66-1.49,2.33-2.39,3.5-4.8,7.02-9.62,10.53-14.42l1.48-2.02,10.13-17.93"/>
    <path class="cls-5" d="M355.95,347.66c-22.09-21.39-82.46-79.68-90.37-87.37-.96-.84-.74-2.49-.88-4.13-.14-3.95-.46-12.91-.6-17.38-.05-1.9-.08-3.64.6-5.42,2.09-5.04,4.89-10.49,7.17-15.54,1.69-3.6,2.08-6.18,3.59-9.47.86-1.95,2.05-3.89,3.21-5.71,5.34-9.01,7.42-14.49,6.2-25.06-.69-12.39-1.38-24.84-2.06-37.09"/>
    <path class="cls-5" d="M268.65,138.21c2.43,1.41,4.74,3.39,7.49,4.18,3.39.75,7.66-2.06,9.32-4.53,3.87-5.92,7.21-12.17,10.59-18.38,1.67-3.07,3.32-6.15,5.02-9.2,1.87-3.36,3.24-6.16,6.42-8.46,2.19-1.59,4.38-3.19,6.57-4.79"/>
    <path class="cls-4" d="M148.2,91.03c4.13-5.1,9.73-9.1,15.42-6.64,2.11,1.12,3.99,2.56,5.84,4.1,1.6,1.49,4.3,3.84,4.37,5.27.23,4.83,2.16,43.02,1.67,49.99-.2,2.79-.88,5.33-1.1,7.85-.87,9.16,8.72,14.15,17.18,12.52,4.71-.59,8.91-2.52,13.27-4.16,15.83-7.97,37.19,6.76,50.48-.7,2.67-1.63,4.82-4.51,6.65-7.66,4.28-7.47,7.54-15.31,10.91-23.16,12.81-32.56,40.38-70.55,60.56-98.78"/>
    <path class="cls-5" d="M149.72,153.34c10.35,4.54,14.71,4.61,24.51-.76"/>
    <line class="cls-5" x1="162.37" y1="156.67" x2="164.8" y2="335.09"/>
    <line class="cls-5" x1="112.89" y1="273.18" x2="134.68" y2="273.77"/>
    <polyline class="cls-5" points="238.46 196.94 145.62 198.63 137.94 197.64"/>
    <path class="cls-5" d="M79.83,397.89c.35-4.86.8-9.18,2.44-13.79,1.05-2.93,2.03-5.89,3.05-8.84l157.03-4.36,20.52,1.87,63.09,16.42"/>
    <line class="cls-5" x1="85.33" y1="375.26" x2="73.05" y2="365.76"/>
    <path class="cls-5" d="M63.06,371.64c2.62-14.06,4.89-28.23,7.68-42.22,1.07-3.95,5.32-2.76,8.94-2.56"/>
    <line class="cls-5" x1="80.91" y1="301.09" x2="31.89" y2="287.03"/>
    <line class="cls-5" x1="260.3" y1="310.48" x2="279.09" y2="322.62"/>
    <path class="cls-5" d="M274.09,329.48c10.21,9.67,33.26,32.33,39.4,37.74,1.41.47,2.11-.43,3.84-1.34,2.88-1.8,8.05-5.03,10.45-6.58,2.12-1.45,2.38-1.71,1.31-2.97-5.39-6.17-34.38-39.29-39.42-45.04-1.67-1.88-2.57-1.97-5.36-3.6-7.36-4.03-18.39-10.14-24.67-13.57"/>
    <polyline class="cls-5" points="275.43 381.83 285.85 340.8 293.43 337.37"/>
    <path class="cls-5" d="M279.07,367.49c11.63,3.13,37.23,10.02,44.73,12.03,1.89.52,2.88.52,5.11.58,23.07.64,14.88-1.8,33.89,11.24"/>
    <path class="cls-5" d="M292.6,380.5c1.87-7.13,7.07-23.94,9-32.3.37-3.54-9.17-8.99-7.73-11.94,4.75-6.05,18.14-20.76,22.95-26.47l23.91-4.51"/>
    <path class="cls-5" d="M257.74,248.51c5.27-.43,11.16-.05,16.47-1.2,3-.85,4.55-3.87,5.93-6.46,1.95-3.69,4.09-7.76,6.02-11.41.67-1.33,1.48-2.61,1.37-4.11-.57-4.14-4.21-8.41-4.25-12.66.29-1.93-.17-5.69,2.28-6.3,1.95-.56,5.54.46,7.29-.88,2.46-3.77,6.83-12.98,8.61-16.25.39-.87.3-1.37-.82-1.9-2.65-1.53-7.34-1.69-8.44-5.05-.65-2.2-1.54-4.78-1.75-6.88.07-.8.6-1.19,1.06-1.91,1.62-2.25,4.83-6.71,8.52-11.83,7.48-10.38,16.89-23.46,18.85-26.16.25-.32.43-.52.87-.44,3.17,1.25,8.51,4.28,11.78,5.83,1.72.97,2.28.97,1.74,1.98-2.63,4.3-16.01,25.81-21.5,34.75-.87,1.88-.89,4.2-1.32,6.26-.43,2.95-1.39,6.32-2.18,9.57-.46,1.53-.59,3.67-2.15,4.09-2.43.46-5.81.13-8.47.23"/>
    <path class="cls-5" d="M149.06,121.16c-12.64.91-25.3,1.83-37.94,2.73-1.55.1-3.33-.06-4.41-1.14-.86-.79-1.37-2.01-1.76-3.13-1.35-3.93-2.66-7.98-4.03-11.84-.61-1.48-1.37-3.16-2.64-4.1-2.95-1.54-4.29,2.46-3.12,4.86.95,2.57,2.78,7.28,3.7,9.73.62,1.8,1.05,2.31.55,3.78-2.11,6.43-11.08,33.48-14.51,43.94.63,7.97,10.86,60.67,14.43,81.53"/>
    <line class="cls-5" x1="89.21" y1="152.91" x2="70.76" y2="117.03"/>
    <path class="cls-5" d="M84.9,165.98l-4.99-8.01c-3.03-4.86-6.05-9.72-9.08-14.58-1.83-2.93-3.96-5.55-4.9-8.92l-1.83-6.58-3.85-13.85-.29-1.05"/>
    <line class="cls-5" x1="86.79" y1="178.37" x2="30.58" y2="188.79"/>
    <path class="cls-5" d="M93.29,220.08s-12.36,1.96-12.36,1.96c-2.32-14.4-4.65-28.81-6.97-43.21-.84-5.23-1.34-9.97-3.56-14.82-1.46-3.19-2.91-6.38-4.37-9.57l-11.12-24.35-5.46-11.95"/>
    <path class="cls-5" d="M90.04,196.61c4.37-.78,15.92-2.49,20.86-3.42.77-.23.75-.65.52-1.49-.54-1.64-1.76-4.42-2.43-6.11"/>
    <path class="cls-5" d="M117.11,123.46c-1.73-9.52-6.38-20.91-.99-30.09,2.44-3.53,6.84-3.93,10.76-4.84"/>
    <line class="cls-5" x1="44.87" y1="291.88" x2="53.06" y2="244.59"/>
    <path class="cls-5" d="M25.26,370.13c-.7,3.16-2.16,9.07-2.88,12.64-.19,1.1.64,1.4,1.65,1.73,1.51.46,3.62,1.04,5.07,1.46"/>
    <path class="cls-5" d="M301.45,469.97c.92,5.54-.07,7.69-5.05,9.7-2.26.99-3.93,2.54-3.96,5.07-.19,4.21-.33,11.46-.17,16.13.03,3.02,3.13,3.35,4.7,5.28,1.86,2.48,1.73,7.35,2.41,10.66"/>
    <path class="cls-5" d="M175.44,124.4c6.77-1.63,14.92-3.57,19.78,1.85.46.52.9,1.1,1.3,1.76,1.52,3.73,1.08,7.47,1.67,11.71.6,6.8,1.37,15.87,1.96,22.05"/>
    <path class="cls-4" d="M195.22,126.25c7.76-.07,22.34-.16,28.23-.21,2.33-.12,4.9.28,7.22-.55,3.75-1.62,4.39-5.11,4.54-9.15.51-6.28,1.14-13.78,1.61-19.76,0,0,20.23-16.62,20.23-16.62,6.22-8.47,12.43-16.93,18.65-25.4,4.94-6.73,9.89-13.47,14.83-20.2,4.36-5.93,8.68-14.52,14.61-18.79,5.98-4.3,13.81-7.13,20.39-10.49l13.72-7"/>
    <line class="cls-4" x1="237.65" y1="160.5" x2="232.56" y2="124.3"/>
    <line class="cls-5" x1="234.56" y1="121.05" x2="274.27" y2="125.04"/>
    <line class="cls-4" x1="285.31" y1="102.51" x2="257.05" y2="79.96"/>
    <path class="cls-5" d="M191.23,123.52c-.14-3.44-.31-7.89-.47-12.36-.12-3.31-.24-6.63-.34-9.54-.05-6.89-.88-14.15,4.02-19.15,7.13-5.89,17.68-2.98,25.84,0,7.08,2.67,12.84,7.72,16.54,14.1"/>
    <line class="cls-5" x1="235.65" y1="111.04" x2="190.76" y2="111.17"/>
    <path class="cls-5" d="M173.62,93.05c2.14-9.24,6.25-20.37,16.78-22.09,4.63-.68,9.41.49,14.06.64,6.74,0,13.76-1.78,19.8-4.33,4.86-2.84,7.79-6.72,12.33-10.72,5.45-5.16,11.2-10.6,16.66-15.76,3.88-3.65,6.69-6.19,9.03-9.99,4.35-7.08,6.11-12.5,14.41-15.23,6.71-2.21,13.3-4.94,19.92-7.4,10.2-3.79,20.41-7.57,30.61-11.36"/>
    <line class="cls-5" x1="267.18" y1="66.17" x2="243.5" y2="50.02"/>
    <path class="cls-5" d="M183.94,73.62c-6.23-5.06-12.1-8.93-14.79-16.1-5.89-18.49-18.1-59.1-23.81-77.5"/>
    <line class="cls-5" x1="120.99" y1="65.28" x2="171.56" y2="62.11"/>
    <line class="cls-5" x1="139.16" y1="82.93" x2="143.1" y2="63.89"/>
    <path class="cls-5" d="M154.25,63.2c-1.97-3.39-3.97-6.81-5.95-10.22-2.33-4.42-5.71-8.1-3.1-11.59,1.58-1.77,3.97-2.55,6.23-3.38,3.51-1.22,7.09-2.42,10.54-3.61"/>
    <path class="cls-5" d="M119.81,38.01c.23-1.58.44-3.07.63-4.37.26-2.09.75-4.34.52-6.4-2.75-9.54-9.25-28.7-12.76-39.88"/>
    <path class="cls-4" d="M117.72,52.46c.6-4.12,1.41-9.72,2.09-14.45"/>
    <path class="cls-4" d="M108.77,41.49c2.19-.54,5.34-1.3,7.83-1.94,1.73-.57,3.08-.55,2.94-1.87-2.81-7.91-14.12-47.59-16.82-54.99"/>
    <line class="cls-5" x1="118.89" y1="44.38" x2="158.41" y2="22.79"/>
    <path class="cls-5" d="M116.93,14.36c1.76-.5,4.65-1.34,6.97-2.01,3.6-1.03,7.71-2.24,9.72-2.79.8-.21,1.54-.32,2.37-.21,1.38.17,2.86.71,4.24.97,1.84.39,2.78-.04,5.03-1.03,2.76-1.19,5.92-2.56,8.61-3.72,1.33-.56,2.23-1.01,2.99-.99,1.82.23,3.2,2.36,4.29,3.78,1.38,2.06,1.6,3.18,3.53,2.79,5.18-1.28,11.15-2.67,16.16-4.08.85-.3,1.19-.95,1.58-1.74,1.73-3.76,5.67-12.3,7.31-15.88"/>
    <path class="cls-5" d="M190.4,70.96c4.4-6.83,6.61-12.14,3.1-19.92-3.72-9.3-8.16-19.81-11.72-28.93"/>
    <path class="cls-5" d="M232.54,60.39c-3.32-7.05-3.51-9.42-11.93-10.26-2.29-.36-4.1-.91-5.46-2.76-2.28-2.85-7.48-9.51-11.05-14.04-1.97-2.58-4.1-4.57-4.19-7.87-.16-2.22-.25-4.9.98-5.51,1.75-.62,3.54.16,5.46.36,4.56.77,11.21,1.9,15.2,2.58"/>
    <path class="cls-5" d="M225.84,50.96c1.53-8.65,6.38-34.65,8.08-44.77.45-3.23-5.85-3.34-8.78-4.28"/>
    <line class="cls-5" x1="221.12" y1="26.4" x2="229.47" y2="26.04"/>
    <polyline class="cls-5" points="254.89 39.25 249.63 22.11 239.61 -10.55"/>
    <path class="cls-5" d="M250.58,43.31c-1.88-1.43-3.74-3.46-5.89-4.53-1.11-.43-1.9.52-3.29,2.22-1.99,2.33-3.83,4.93-5.98,7.04-1.85,1.65-4.6,3.44-6.78,5.06"/>
    <path class="cls-5" d="M200.21,27.37c-1.91.31-8.11-.24-7.51,1.85,2.12,4.2,7.17,11.69,10.11,16.66,1.32,2.13,2.6,4.2,3.89,6.29,1.37,2.17,1.96,3.54,3.36,3.66,2.79.08,5.82-2.01,7.58-3.98.95-1.27,1.19-2.69,1.37-4.22.85-8.21,7.12-51.36,8.14-61.67"/>
    <line class="cls-5" x1="190.79" y1="44.35" x2="198.88" y2="39.56"/>
    <path class="cls-5" d="M261.07,153.09c2.84,2.19,5.65,4.41,8.47,6.61,2.05,1.61,5.91.78,8.39.72l5.99-.13"/>
    <path class="cls-5" d="M284.81,176.42s5.64-1,5.64-1c16.45-2.04,12.43-3.41,10.2,11.93"/>
    <path class="cls-5" d="M293.78,184.41c-3.28,7.9-2.08,6.71,5.14,9.79"/>
    <path class="cls-5" d="M306.11,197.56c2.28.02,4.83.24,7.14.09,1.68-.14,2.15-1.05,3.39-3.12,1.98-3.42,4.45-7.09,6.2-10.49,1.63-4.42,5.26-15.02,7.68-21.86.92-2.45,1.06-3.62,2.23-5.5,2.48-4.01,10.81-17.49,13.38-21.63"/>
    <path class="cls-5" d="M274.27,211.36c4.96,1.6,9.3,2.56,12.55,6.58,5.29,5.69,17.46,18.87,21.21,22.86.51.49,1,1.1,1.55,1.13.5-.22.44-1.12.52-1.77.26-5.73.96-26,1.27-34.04-.04-3.57,1.43-6.34,3.61-9.19"/>
    <path class="cls-5" d="M309.57,241.93c.44,4.29.8,9.09,1.34,13.46.27,3.13,1.48,5.59,3.14,7.98.64.93,1.35,1.84,2.1,2.78,2.6,3.19,4.86,6.85,8.04,9.38,4.95,3.32,11.19,5.38,16.52,7.99"/>
    <path class="cls-5" d="M314.46,263.94c-2,1.15-4.59,2.55-6.53,3.76-1.03.72-1.81,1.12-1.77,2.22,1.82,4.69,6.52,12.87,9.54,19.13,1.18,2.57,2.64,4.17,2.38,6.89-.32,4.09-.9,9.69-1.28,13.85"/>
    <path class="cls-5" d="M315.95,289.54c-4.03-2.55-9.7-6.36-13.95-8.95-.15.02.02.23.08.37.72,1.28,4.35,7.19,5.16,8.69.37.72-.24.82-.97.97-.58.11-1.38.25-2.25.41-1.73.31-4.14.74-5.55,1"/>
    <path class="cls-5" d="M363.2,361.4s-33.39-4-33.43-4"/>
    <path class="cls-5" d="M319.1,402.79c1.89-4.09,3.77-8.18,5.66-12.26.99-2.38,2.44-3.2,4.61-1.46,6.81,5.03,13.75,10.2,20.61,15.28"/>
    <line class="cls-5" x1="316.66" y1="366.26" x2="327.24" y2="380.05"/>
    <path class="cls-5" d="M318.87,135.51c-2.02-2.16-4.53-4.73-6.58-7.02-1.68-1.8-1.85-3.05-.3-5.6,1.61-2.89,3.5-6.25,5.09-9.06.99-1.85,1.89-2.9,3.78-3.56,4.89-1.93,14.64-5.7,19.85-7.76"/>
    <path class="cls-5" d="M249.63,22.11c1.73-.97,3.46-1.93,5.18-2.9,2.02-1.06,4.08-2.6,6-2.45,2.95.39,4.87,3.16,7.15,4.83"/>
    <path class="cls-5" d="M76.51,111.04c.31-4.26.71-10.51,1-14.9.12-1.7-.15-2.93-2.26-3.19-2.8-.61-6.73.26-8.37-2.6-2.59-3.88-10.09-15.26-12.23-18.5-1-1.47-1.37-2.33-2.12-4.08-6.3-14.35-14.51-32.9-20.47-46.05-.05-2.95,2.12-4.99.27-7.95-2.55-5.55-6.83-14.8-9.2-19.95"/>
    <path class="cls-5" d="M-5.02,381.35c3.33-.17,6.55-.3,9.82.42,3.79.73,7.24,2.48,9.41,3.24,1.32.47,1.92.51,2.14.16,3.32-15.85,24.63-162.97,27.97-173.73,12.94-2.62,35.27-6.12,46.93-8.2"/>
    <line class="cls-5" x1="-6.46" y1="371.64" x2="18.69" y2="371.64"/>
    <path class="cls-5" d="M-26.28,341.1C-7.62,293.04,14.41,246.47,28.45,196.82c2.16-6.77,3.43-13.66,3.92-20.79.41-3.68.4-5.84-3.35-6.28-5.16-.76-11.81-1.67-16.69-2.35"/>
    <path class="cls-5" d="M-4.06,349.09c4.13-12.24,10.64-30.73,14.42-42.44,3.72-14,10.76-41.2,13.58-52.16.43-1.74.42-3.26-.78-4.74-1.49-1.9-4.68-4.42-7.54-6.63-6.96-5.31-15.91-7.96-23.67-11.56"/>
    <path class="cls-3" d="M-10.49,238.73s16.32-45.71,16.32-45.71c.92-3.56,1.84-7.12,2.76-10.68,1.62-6.25,4.01-12.36,4.01-18.89,0-3.19,0-6.38,0-9.57v-24.74c0-5.55.18-10.48-1.52-15.82-.99-3.11-1.96-6.23-2.95-9.34L.7,80.4l-4.77-15.12"/>
    <line class="cls-5" x1="52.24" y1="209.92" x2="49.45" y2="185.29"/>
    <path class="cls-5" d="M12.61,121.05c2.65.34,6.07.79,9.11,1.2,2.86.67,7.05,0,8.38,3.03.9,2.72.17,7.83.74,10.31.47,3.31,5.32.89,7.69.68,5.46-1.16,12.95-2.74,17.88-3.82"/>
  </g>
  <g id="Layer_4" data-name="Layer 4" class="cls-8">
    <rect class="cls-1" x="31.89" y="106.43" width="73.63" height="28.54"/>
    <rect class="cls-1" x="30.58" y="46.53" width="87.67" height="28.3"/>
    <rect class="cls-1" x="196.37" y="93.05" width="102.18" height="13.87"/>
    <rect class="cls-1" x="169.96" y="231.56" width="99.74" height="13.02"/>
  </g>
  <g id="Layer_3" data-name="Layer 3">
    <circle class="cls-6" cx="109.17" cy="116.64" r="1.5"/>
    <circle class="cls-6" cx="122.74" cy="54.2" r="1.5"/>
    <circle class="cls-6" cx="166.42" cy="238.73" r="1.5"/>
    <circle class="cls-6" cx="193.56" cy="100.1" r="1.5"/>
    <circle class="cls-6" cx="226.28" cy="511.39" r="1.5"/>
  </g>
  <g id="Layer_6" data-name="Layer 6">
    <g>
      <path class="cls-6" d="M37.65,118.3l-2.59-3.78h-.24v3.78h-.53v-8h1.15c.61,0,1.16.05,1.69.41.62.43.83,1.09.83,1.71,0,.79-.35,1.61-1.34,1.94-.42.14-.8.16-.98.16l2.61,3.78h-.6ZM34.82,114.04h.77c1.14,0,1.82-.6,1.82-1.63,0-.8-.4-1.22-.71-1.39-.34-.19-.91-.24-1.22-.24h-.66v3.26Z"/>
      <path class="cls-6" d="M43.76,115.86c0,1.45-1.12,2.57-2.57,2.57s-2.57-1.12-2.57-2.57,1.12-2.57,2.57-2.57,2.57,1.12,2.57,2.57ZM43.26,115.86c0-1.19-.89-2.11-2.06-2.11s-2.06.92-2.06,2.11.89,2.11,2.06,2.11,2.06-.92,2.06-2.11Z"/>
      <path class="cls-6" d="M47.26,114.3c-.17-.38-.5-.55-.85-.55-.55,0-.83.42-.83.78,0,.48.38.64.86.83.49.19.95.32,1.26.72.2.25.25.52.25.79,0,1.12-.84,1.56-1.6,1.56-.82,0-1.49-.48-1.69-1.3l.47-.14c.17.65.68.98,1.22.98.62,0,1.09-.44,1.09-1.08,0-.55-.35-.76-1.09-1.06-.49-.2-.85-.36-1.07-.65-.11-.14-.22-.35-.22-.64,0-.74.56-1.26,1.31-1.26.58,0,1.06.26,1.28.79l-.41.22Z"/>
      <path class="cls-6" d="M51.27,114.3c-.17-.38-.5-.55-.85-.55-.55,0-.83.42-.83.78,0,.48.38.64.86.83.49.19.95.32,1.26.72.2.25.25.52.25.79,0,1.12-.84,1.56-1.6,1.56-.82,0-1.49-.48-1.69-1.3l.47-.14c.17.65.68.98,1.22.98.62,0,1.09-.44,1.09-1.08,0-.55-.35-.76-1.09-1.06-.49-.2-.85-.36-1.07-.65-.11-.14-.22-.35-.22-.64,0-.74.56-1.26,1.31-1.26.58,0,1.06.26,1.28.79l-.41.22Z"/>
      <path class="cls-6" d="M53,111.77c0-.26.19-.44.43-.44s.43.18.43.44-.19.44-.43.44-.43-.18-.43-.44ZM53.67,113.4v4.89h-.48v-4.89h.48Z"/>
      <path class="cls-6" d="M60.22,115.86c0,1.45-1.12,2.57-2.57,2.57s-2.57-1.12-2.57-2.57,1.12-2.57,2.57-2.57,2.57,1.12,2.57,2.57ZM59.72,115.86c0-1.19-.89-2.11-2.06-2.11s-2.06.92-2.06,2.11.89,2.11,2.06,2.11,2.06-.92,2.06-2.11Z"/>
      <path class="cls-6" d="M68.83,114.46h3.36c0,.73-.16,1.79-.82,2.63-.71.9-1.79,1.34-3.01,1.34-2.35,0-4.14-1.73-4.14-4.11s1.85-4.13,4.17-4.13c1.13,0,1.88.38,2.51.86.34.26.64.55.96,1.01l-.42.34c-.23-.38-.55-.71-.77-.89-.5-.42-1.3-.84-2.29-.84-2.05,0-3.61,1.63-3.61,3.67s1.51,3.61,3.57,3.61c1.37,0,2.35-.7,2.78-1.36.31-.48.5-1.14.53-1.65h-2.83v-.48Z"/>
      <path class="cls-6" d="M77.68,113.4h.48v4.89h-.48v-.88c-.49.76-1.27,1.01-1.91,1.01-1.28,0-2.39-.97-2.39-2.58,0-1.51.96-2.55,2.39-2.55.77,0,1.44.3,1.91.96v-.85ZM73.89,115.81c0,1.1.68,2.16,1.92,2.16s1.89-1.03,1.89-2.16c0-1.45-1.07-2.06-1.91-2.06-.97,0-1.91.73-1.91,2.06Z"/>
      <path class="cls-6" d="M79.89,113.4h.48v.64c.18-.42.55-.74,1.08-.74.13,0,.34.02.52.12l-.24.43s-.14-.1-.36-.1c-.98,0-1,1.31-1,1.92v2.63h-.48v-4.89Z"/>
      <path class="cls-6" d="M86.99,109.55h.48v8.74h-.48v-.88c-.49.76-1.27,1.01-1.9,1.01-1.24,0-2.4-.89-2.4-2.6s1.21-2.53,2.4-2.53c.89,0,1.51.41,1.9.96v-4.7ZM83.2,115.81c0,1.43.94,2.16,1.92,2.16s1.9-.73,1.9-2.16c0-1.14-.71-2.06-1.92-2.06-1.01,0-1.9.7-1.9,2.06Z"/>
      <path class="cls-6" d="M89.4,115.91c0,1.25.91,2.06,1.94,2.06.79,0,1.39-.47,1.7-1.12l.41.24c-.29.55-.94,1.33-2.15,1.33-1.52,0-2.41-1.13-2.41-2.55,0-1.7,1.18-2.58,2.37-2.58,1.32,0,2.31,1.06,2.31,2.61h-4.19ZM93.08,115.45c-.12-.97-.84-1.7-1.81-1.7s-1.7.76-1.83,1.7h3.65Z"/>
      <path class="cls-6" d="M95,113.4h.48v.77c.23-.41.67-.88,1.5-.88.88,0,1.25.52,1.36.68.22.35.24.8.24,1.24v3.08h-.48v-3.08c0-.34-.01-.71-.19-.98-.11-.18-.37-.48-.96-.48-.67,0-1.02.36-1.2.68-.22.38-.26.84-.26,1.32v2.54h-.48v-4.89Z"/>
      <path class="cls-6" d="M102.39,114.3c-.17-.38-.5-.55-.85-.55-.55,0-.83.42-.83.78,0,.48.38.64.86.83.49.19.95.32,1.26.72.2.25.25.52.25.79,0,1.12-.84,1.56-1.6,1.56-.82,0-1.49-.48-1.69-1.3l.47-.14c.17.65.68.98,1.22.98.62,0,1.09-.44,1.09-1.08,0-.55-.35-.76-1.09-1.06-.49-.2-.85-.36-1.07-.65-.11-.14-.22-.35-.22-.64,0-.74.56-1.26,1.31-1.26.58,0,1.06.26,1.28.79l-.41.22Z"/>
      <path class="cls-6" d="M47.67,129.72c.11.7.25,1.31.45,1.95l-.38.23c-.23-.65-.35-1.17-.48-1.83-.19-.98-.26-1.65-.26-2.67s.07-1.7.26-2.67c.13-.66.25-1.18.48-1.83l.38.23c-.22.68-.34,1.25-.45,1.95-.11.68-.21,1.54-.21,2.32,0,.69.08,1.54.21,2.32Z"/>
      <path class="cls-6" d="M52.42,124.03h-2.26v2.42h2.2v.4h-2.2v3.45h-.44v-6.67h2.7v.4Z"/>
      <path class="cls-6" d="M56.3,126.22h.4v4.08h-.4v-.73c-.41.63-1.06.84-1.59.84-1.07,0-1.99-.81-1.99-2.15,0-1.26.8-2.13,1.99-2.13.64,0,1.2.25,1.59.8v-.71ZM53.14,128.23c0,.92.57,1.8,1.6,1.8s1.58-.86,1.58-1.8c0-1.21-.89-1.72-1.59-1.72-.81,0-1.59.61-1.59,1.72Z"/>
      <path class="cls-6" d="M58.14,126.22h.4v.53c.15-.35.46-.62.9-.62.11,0,.28.02.43.1l-.2.36s-.12-.08-.3-.08c-.82,0-.83,1.09-.83,1.6v2.19h-.4v-4.08Z"/>
      <path class="cls-6" d="M60.9,128.31c0,1.04.76,1.72,1.62,1.72.66,0,1.16-.39,1.42-.93l.34.2c-.24.46-.78,1.11-1.79,1.11-1.27,0-2.01-.94-2.01-2.13,0-1.42.98-2.15,1.98-2.15,1.1,0,1.93.88,1.93,2.18h-3.49ZM63.97,127.93c-.1-.81-.7-1.42-1.51-1.42s-1.42.63-1.53,1.42h3.04Z"/>
      <path class="cls-6" d="M65.37,126.22l1.41,3.37,1.41-3.62,1.41,3.62,1.45-3.37h.44l-1.89,4.33-1.41-3.62-1.41,3.62-1.85-4.33h.44Z"/>
      <path class="cls-6" d="M72.45,128.31c0,1.04.76,1.72,1.62,1.72.66,0,1.16-.39,1.42-.93l.34.2c-.24.46-.78,1.11-1.79,1.11-1.27,0-2.01-.94-2.01-2.13,0-1.42.98-2.15,1.98-2.15,1.1,0,1.93.88,1.93,2.18h-3.49ZM75.52,127.93c-.1-.81-.7-1.42-1.51-1.42s-1.42.63-1.53,1.42h3.04Z"/>
      <path class="cls-6" d="M77.52,123.01v7.29h-.4v-7.29h.4Z"/>
      <path class="cls-6" d="M79.36,123.01v7.29h-.4v-7.29h.4Z"/>
      <path class="cls-6" d="M83.75,127.13v3.17h-.44v-6.67h1.29c1.09,0,1.95.6,1.95,1.74s-.79,1.76-1.94,1.76h-.86ZM83.75,126.73h.88c.87,0,1.46-.51,1.46-1.35s-.56-1.35-1.53-1.35h-.81v2.7Z"/>
      <path class="cls-6" d="M90.49,126.22h.4v4.08h-.4v-.73c-.41.63-1.06.84-1.59.84-1.07,0-1.99-.81-1.99-2.15,0-1.26.8-2.13,1.99-2.13.64,0,1.2.25,1.59.8v-.71ZM87.33,128.23c0,.92.57,1.8,1.6,1.8s1.58-.86,1.58-1.8c0-1.21-.89-1.72-1.59-1.72-.81,0-1.59.61-1.59,1.72Z"/>
      <path class="cls-6" d="M92.33,126.22h.4v.53c.15-.35.46-.62.9-.62.11,0,.28.02.43.1l-.2.36s-.12-.08-.3-.08c-.82,0-.83,1.09-.83,1.6v2.19h-.4v-4.08Z"/>
      <path class="cls-6" d="M95.36,126.6v3.7h-.4v-3.7h-.45v-.38h.45v-1.46h.4v1.46h.71v.38h-.71Z"/>
      <path class="cls-6" d="M98.37,130.37l-1.94-4.15h.46l1.71,3.63,1.49-3.63h.46l-2.68,6.38h-.46l.96-2.23Z"/>
      <path class="cls-6" d="M101.33,131.67c.2-.64.34-1.25.45-1.95.13-.78.21-1.63.21-2.32,0-.78-.1-1.64-.21-2.32-.11-.7-.23-1.27-.45-1.95l.38-.23c.23.65.35,1.17.48,1.83.19.97.26,1.64.26,2.67s-.07,1.69-.26,2.67c-.13.66-.25,1.18-.48,1.83l-.38-.23Z"/>
    </g>
    <g>
      <path class="cls-6" d="M204.87,97.46c-.68-.8-1.67-1.26-2.7-1.26-2.05,0-3.59,1.64-3.59,3.67,0,2.38,1.98,3.61,3.6,3.61.8,0,1.87-.32,2.69-1.21v.7c-.82.72-1.8,1-2.66,1-2.4,0-4.17-1.88-4.17-4.11s1.85-4.13,4.15-4.13c1.52,0,2.45.82,2.69,1.04v.7Z"/>
      <path class="cls-6" d="M210.95,101.39c0,1.45-1.12,2.57-2.57,2.57s-2.57-1.12-2.57-2.57,1.12-2.57,2.57-2.57,2.57,1.12,2.57,2.57ZM210.45,101.39c0-1.19-.89-2.11-2.06-2.11s-2.06.92-2.06,2.11.89,2.11,2.06,2.11,2.06-.92,2.06-2.11Z"/>
      <path class="cls-6" d="M212.37,98.93h.48v.77c.23-.41.67-.88,1.5-.88.88,0,1.25.52,1.36.68.22.35.24.8.24,1.24v3.08h-.48v-3.08c0-.34-.01-.71-.19-.98-.11-.18-.37-.48-.96-.48-.67,0-1.02.36-1.2.68-.22.38-.26.84-.26,1.32v2.54h-.48v-4.89Z"/>
      <path class="cls-6" d="M217.44,98.93l1.73,4.07,1.7-4.07h.53l-2.23,5.19-2.25-5.19h.53Z"/>
      <path class="cls-6" d="M222.55,101.44c0,1.25.91,2.06,1.94,2.06.79,0,1.39-.47,1.7-1.12l.41.24c-.29.55-.94,1.33-2.15,1.33-1.52,0-2.41-1.13-2.41-2.55,0-1.7,1.18-2.58,2.37-2.58,1.32,0,2.31,1.06,2.31,2.61h-4.19ZM226.23,100.98c-.12-.97-.84-1.7-1.81-1.7s-1.7.76-1.83,1.7h3.65Z"/>
      <path class="cls-6" d="M228.15,98.93h.48v.77c.23-.41.67-.88,1.5-.88.88,0,1.25.52,1.36.68.22.35.24.8.24,1.24v3.08h-.48v-3.08c0-.34-.01-.71-.19-.98-.11-.18-.37-.48-.96-.48-.67,0-1.02.36-1.2.68-.22.38-.26.84-.26,1.32v2.54h-.48v-4.89Z"/>
      <path class="cls-6" d="M233.97,99.39v4.44h-.48v-4.44h-.54v-.46h.54v-1.75h.48v1.75h.85v.46h-.85Z"/>
      <path class="cls-6" d="M242.44,97.18c-.49-.96-1.36-.98-1.57-.98-.95,0-1.49.68-1.49,1.49,0,.86.6,1.15,1.4,1.55.79.38,1.19.55,1.6.84.35.24.85.66.85,1.55,0,1.34-1.13,2.34-2.49,2.34-1.03,0-1.56-.49-1.86-.84-.31-.36-.44-.67-.52-.88l.46-.22c.11.31.31.62.43.77.36.46.95.68,1.5.68,1.08,0,1.93-.79,1.93-1.85,0-.43-.17-.89-.78-1.26-.23-.13-.7-.37-1.35-.7-.79-.38-1.19-.6-1.46-1.06-.18-.3-.25-.6-.25-.91,0-.92.62-1.99,2.05-1.99.8,0,1.54.38,1.94,1.14l-.38.32Z"/>
      <path class="cls-6" d="M248.73,106.58v-3.63c-.49.76-1.27,1.01-1.9,1.01-1.24,0-2.4-.89-2.4-2.6s1.21-2.53,2.4-2.53c.89,0,1.51.41,1.9.96v-.85h.48v7.65h-.48ZM244.94,101.34c0,1.43.94,2.16,1.92,2.16s1.9-.73,1.9-2.16c0-1.14-.71-2.06-1.92-2.06-1.01,0-1.9.7-1.9,2.06Z"/>
      <path class="cls-6" d="M251.42,98.93v2.95c0,.35.01.86.31,1.22s.74.4.97.4.67-.04.97-.4.31-.88.31-1.22v-2.95h.48v3.08c0,.4-.04.91-.37,1.34-.37.48-.96.6-1.39.6s-1.02-.12-1.39-.6c-.34-.43-.37-.95-.37-1.34v-3.08h.48Z"/>
      <path class="cls-6" d="M260.18,98.93h.48v4.89h-.48v-.88c-.49.76-1.27,1.01-1.91,1.01-1.28,0-2.39-.97-2.39-2.58,0-1.51.96-2.55,2.39-2.55.77,0,1.44.3,1.91.96v-.85ZM256.39,101.34c0,1.1.68,2.16,1.92,2.16s1.89-1.03,1.89-2.16c0-1.45-1.07-2.06-1.91-2.06-.97,0-1.91.73-1.91,2.06Z"/>
      <path class="cls-6" d="M262.39,98.93h.48v.64c.18-.42.55-.74,1.08-.74.13,0,.34.02.52.12l-.24.43s-.14-.1-.36-.1c-.98,0-1,1.31-1,1.92v2.63h-.48v-4.89Z"/>
      <path class="cls-6" d="M265.7,101.44c0,1.25.91,2.06,1.94,2.06.79,0,1.39-.47,1.7-1.12l.41.24c-.29.55-.94,1.33-2.15,1.33-1.52,0-2.41-1.13-2.41-2.55,0-1.7,1.18-2.58,2.37-2.58,1.32,0,2.31,1.06,2.31,2.61h-4.19ZM269.38,100.98c-.12-.97-.84-1.7-1.81-1.7s-1.7.76-1.83,1.7h3.65Z"/>
      <path class="cls-6" d="M274.84,99.22h4.85v-3.39h.53v8h-.53v-4.13h-4.85v4.13h-.53v-8h.53v3.39Z"/>
      <path class="cls-6" d="M286.98,101.39c0,1.45-1.12,2.57-2.57,2.57s-2.57-1.12-2.57-2.57,1.12-2.57,2.57-2.57,2.57,1.12,2.57,2.57ZM286.48,101.39c0-1.19-.89-2.11-2.06-2.11s-2.06.92-2.06,2.11.89,2.11,2.06,2.11,2.06-.92,2.06-2.11Z"/>
      <path class="cls-6" d="M288.92,99.39v4.44h-.48v-4.44h-.54v-.46h.54v-1.75h.48v1.75h.85v.46h-.85Z"/>
      <path class="cls-6" d="M290.92,101.44c0,1.25.91,2.06,1.94,2.06.79,0,1.39-.47,1.7-1.12l.41.24c-.29.55-.94,1.33-2.15,1.33-1.52,0-2.41-1.13-2.41-2.55,0-1.7,1.18-2.58,2.38-2.58,1.32,0,2.31,1.06,2.31,2.61h-4.19ZM294.6,100.98c-.12-.97-.84-1.7-1.81-1.7s-1.7.76-1.83,1.7h3.65Z"/>
      <path class="cls-6" d="M297.01,95.08v8.74h-.48v-8.74h.48Z"/>
    </g>
    <g>
      <path class="cls-6" d="M171.24,234.26h1.75c1.39,0,2.21.8,2.21,2,0,.86-.41,1.43-.94,1.75,1.04.17,1.66.97,1.66,2,0,1.4-1.03,2.24-2.48,2.24h-2.19v-8ZM171.77,237.88h1.27c.41,0,.74-.05,1.09-.34.32-.26.53-.67.53-1.22,0-.64-.28-1.03-.54-1.25-.4-.31-.91-.34-1.33-.34h-1.02v3.14ZM171.77,241.78h1.34c.54,0,1.2,0,1.74-.48.43-.38.52-.85.52-1.22,0-.72-.25-1.21-.85-1.49-.22-.1-.61-.23-1.5-.23h-1.25v3.42Z"/>
      <path class="cls-6" d="M177.44,237.36h.48v.64c.18-.42.55-.74,1.08-.74.13,0,.34.02.52.12l-.24.43s-.14-.1-.36-.1c-.98,0-1,1.31-1,1.92v2.63h-.48v-4.89Z"/>
      <path class="cls-6" d="M185.13,239.82c0,1.45-1.12,2.57-2.57,2.57s-2.57-1.12-2.57-2.57,1.12-2.57,2.57-2.57,2.57,1.12,2.57,2.57ZM184.62,239.82c0-1.19-.89-2.11-2.06-2.11s-2.06.92-2.06,2.11.89,2.11,2.06,2.11,2.06-.92,2.06-2.11Z"/>
      <path class="cls-6" d="M186.3,237.36l1.69,4.04,1.69-4.34,1.69,4.34,1.74-4.04h.53l-2.27,5.19-1.69-4.34-1.69,4.34-2.22-5.19h.53Z"/>
      <path class="cls-6" d="M194.61,237.36h.48v.77c.23-.41.67-.88,1.5-.88.88,0,1.25.52,1.36.68.22.35.24.8.24,1.24v3.08h-.48v-3.08c0-.34-.01-.71-.19-.98-.11-.18-.37-.48-.96-.48-.67,0-1.02.36-1.2.68-.22.38-.26.84-.26,1.32v2.54h-.48v-4.89Z"/>
      <path class="cls-6" d="M200.3,234.11l.48.14-.89,2.4-.31-.12.72-2.42Z"/>
      <path class="cls-6" d="M203.75,238.26c-.17-.38-.5-.55-.85-.55-.55,0-.83.42-.83.78,0,.48.38.64.86.83.49.19.95.32,1.26.72.2.25.25.52.25.79,0,1.12-.84,1.56-1.6,1.56-.82,0-1.49-.48-1.69-1.3l.47-.14c.17.65.68.98,1.22.98.62,0,1.09-.44,1.09-1.08,0-.55-.35-.76-1.09-1.06-.49-.2-.85-.36-1.07-.65-.11-.14-.22-.35-.22-.64,0-.74.56-1.26,1.31-1.26.58,0,1.06.26,1.28.79l-.41.22Z"/>
      <path class="cls-6" d="M215.09,235.89c-.68-.8-1.67-1.26-2.7-1.26-2.05,0-3.59,1.64-3.59,3.67,0,2.38,1.98,3.61,3.6,3.61.8,0,1.87-.32,2.69-1.21v.7c-.82.72-1.8,1-2.66,1-2.4,0-4.17-1.88-4.17-4.11s1.85-4.13,4.15-4.13c1.52,0,2.45.82,2.69,1.04v.7Z"/>
      <path class="cls-6" d="M216.54,239.87c0,1.25.91,2.06,1.94,2.06.79,0,1.39-.47,1.7-1.12l.41.24c-.29.55-.94,1.33-2.15,1.33-1.52,0-2.41-1.13-2.41-2.55,0-1.7,1.18-2.58,2.37-2.58,1.32,0,2.31,1.06,2.31,2.61h-4.19ZM220.23,239.41c-.12-.97-.84-1.7-1.81-1.7s-1.7.76-1.83,1.7h3.65Z"/>
      <path class="cls-6" d="M222.15,237.36h.48v.77c.23-.41.67-.88,1.5-.88.88,0,1.25.52,1.36.68.22.35.24.8.24,1.24v3.08h-.48v-3.08c0-.34-.01-.71-.19-.98-.11-.18-.37-.48-.96-.48-.67,0-1.02.36-1.2.68-.22.38-.26.84-.26,1.32v2.54h-.48v-4.89Z"/>
      <path class="cls-6" d="M227.97,237.82v4.44h-.48v-4.44h-.54v-.46h.54v-1.75h.48v1.75h.85v.46h-.85Z"/>
      <path class="cls-6" d="M229.78,237.36h.48v.64c.18-.42.55-.74,1.08-.74.13,0,.34.02.52.12l-.24.43s-.14-.1-.36-.1c-.98,0-1,1.31-1,1.92v2.63h-.48v-4.89Z"/>
      <path class="cls-6" d="M236.75,237.36h.48v4.89h-.48v-.88c-.49.76-1.27,1.01-1.91,1.01-1.28,0-2.39-.97-2.39-2.58,0-1.51.96-2.55,2.39-2.55.77,0,1.44.3,1.91.96v-.85ZM232.96,239.77c0,1.1.68,2.16,1.92,2.16s1.9-1.03,1.9-2.16c0-1.45-1.07-2.06-1.91-2.06-.97,0-1.91.73-1.91,2.06Z"/>
      <path class="cls-6" d="M239.44,233.51v8.74h-.48v-8.74h.48Z"/>
      <path class="cls-6" d="M244.71,237.65h4.85v-3.39h.53v8h-.53v-4.13h-4.85v4.13h-.53v-8h.53v3.39Z"/>
      <path class="cls-6" d="M256.85,239.82c0,1.45-1.12,2.57-2.57,2.57s-2.57-1.12-2.57-2.57,1.12-2.57,2.57-2.57,2.57,1.12,2.57,2.57ZM256.34,239.82c0-1.19-.89-2.11-2.06-2.11s-2.06.92-2.06,2.11.89,2.11,2.06,2.11,2.06-.92,2.06-2.11Z"/>
      <path class="cls-6" d="M258.78,237.82v4.44h-.48v-4.44h-.54v-.46h.54v-1.75h.48v1.75h.85v.46h-.85Z"/>
      <path class="cls-6" d="M260.79,239.87c0,1.25.91,2.06,1.94,2.06.79,0,1.39-.47,1.7-1.12l.41.24c-.29.55-.94,1.33-2.15,1.33-1.52,0-2.41-1.13-2.41-2.55,0-1.7,1.18-2.58,2.37-2.58,1.32,0,2.31,1.06,2.31,2.61h-4.19ZM264.47,239.41c-.12-.97-.84-1.7-1.81-1.7s-1.7.76-1.83,1.7h3.65Z"/>
      <path class="cls-6" d="M266.87,233.51v8.74h-.48v-8.74h.48Z"/>
    </g>
    <g>
      <path class="cls-6" d="M36.88,55.62h-3.41l-1.07,2.63h-.58l3.37-8.24,3.32,8.24h-.58l-1.07-2.63ZM36.69,55.14l-1.5-3.79-1.52,3.79h3.02Z"/>
      <path class="cls-6" d="M40.04,49.5v8.74h-.48v-8.74h.48Z"/>
      <path class="cls-6" d="M42.28,53.81v4.44h-.48v-4.44h-.54v-.46h.54v-1.75h.48v1.75h.85v.46h-.85Z"/>
      <path class="cls-6" d="M43.9,51.72c0-.26.19-.44.43-.44s.43.18.43.44-.19.44-.43.44-.43-.18-.43-.44ZM44.57,53.35v4.89h-.48v-4.89h.48Z"/>
      <path class="cls-6" d="M48.39,54.25c-.17-.38-.5-.55-.85-.55-.55,0-.83.42-.83.78,0,.48.38.64.86.83.49.19.95.32,1.26.72.2.25.25.52.25.79,0,1.12-.84,1.56-1.6,1.56-.82,0-1.49-.48-1.69-1.3l.47-.14c.17.65.68.98,1.22.98.62,0,1.09-.44,1.09-1.08,0-.55-.35-.76-1.09-1.06-.49-.2-.85-.36-1.07-.65-.11-.14-.22-.35-.22-.64,0-.74.56-1.26,1.31-1.26.58,0,1.06.26,1.28.79l-.41.22Z"/>
      <path class="cls-6" d="M57.46,55.62h-3.41l-1.07,2.63h-.58l3.37-8.24,3.32,8.24h-.58l-1.07-2.63ZM57.27,55.14l-1.5-3.79-1.52,3.79h3.02Z"/>
      <path class="cls-6" d="M59.52,53.35l1.73,4.07,1.7-4.07h.53l-2.23,5.19-2.25-5.19h.53Z"/>
      <path class="cls-6" d="M64.64,55.86c0,1.25.91,2.06,1.94,2.06.79,0,1.39-.47,1.7-1.12l.41.24c-.29.55-.94,1.33-2.15,1.33-1.52,0-2.41-1.13-2.41-2.55,0-1.7,1.18-2.58,2.37-2.58,1.32,0,2.31,1.06,2.31,2.61h-4.19ZM68.32,55.4c-.12-.97-.84-1.7-1.81-1.7s-1.7.76-1.83,1.7h3.65Z"/>
      <path class="cls-6" d="M70.24,53.35h.48v.77c.23-.41.67-.88,1.5-.88.88,0,1.25.52,1.36.68.22.35.24.8.24,1.24v3.08h-.48v-3.08c0-.34-.01-.71-.19-.98-.11-.18-.37-.48-.96-.48-.67,0-1.02.36-1.2.68-.22.38-.26.84-.26,1.32v2.54h-.48v-4.89Z"/>
      <path class="cls-6" d="M75.35,51.72c0-.26.19-.44.43-.44s.43.18.43.44-.19.44-.43.44-.43-.18-.43-.44ZM76.02,53.35v4.89h-.48v-4.89h.48Z"/>
      <path class="cls-6" d="M81.73,49.5h.48v8.74h-.48v-.88c-.49.76-1.27,1.01-1.9,1.01-1.24,0-2.4-.89-2.4-2.6s1.21-2.53,2.4-2.53c.89,0,1.51.41,1.9.96v-4.7ZM77.94,55.76c0,1.43.94,2.16,1.92,2.16s1.89-.73,1.89-2.16c0-1.14-.71-2.06-1.92-2.06-1.01,0-1.89.7-1.89,2.06Z"/>
      <path class="cls-6" d="M87.92,53.35h.48v4.89h-.48v-.88c-.49.76-1.27,1.01-1.91,1.01-1.28,0-2.39-.97-2.39-2.58,0-1.51.96-2.55,2.39-2.55.77,0,1.44.3,1.91.96v-.85ZM84.13,55.76c0,1.1.68,2.16,1.92,2.16s1.9-1.03,1.9-2.16c0-1.45-1.07-2.06-1.91-2.06-.97,0-1.91.73-1.91,2.06Z"/>
      <path class="cls-6" d="M93.67,53.64h4.85v-3.39h.53v8h-.53v-4.13h-4.85v4.13h-.53v-8h.53v3.39Z"/>
      <path class="cls-6" d="M105.82,55.81c0,1.45-1.12,2.57-2.57,2.57s-2.57-1.12-2.57-2.57,1.12-2.57,2.57-2.57,2.57,1.12,2.57,2.57ZM105.31,55.81c0-1.19-.89-2.11-2.06-2.11s-2.06.92-2.06,2.11.89,2.11,2.06,2.11,2.06-.92,2.06-2.11Z"/>
      <path class="cls-6" d="M107.75,53.81v4.44h-.48v-4.44h-.54v-.46h.54v-1.75h.48v1.75h.85v.46h-.85Z"/>
      <path class="cls-6" d="M109.75,55.86c0,1.25.91,2.06,1.94,2.06.79,0,1.39-.47,1.7-1.12l.41.24c-.29.55-.94,1.33-2.15,1.33-1.52,0-2.41-1.13-2.41-2.55,0-1.7,1.18-2.58,2.37-2.58,1.32,0,2.31,1.06,2.31,2.61h-4.19ZM113.44,55.4c-.12-.97-.84-1.7-1.81-1.7s-1.7.76-1.83,1.7h3.65Z"/>
      <path class="cls-6" d="M115.84,49.5v8.74h-.48v-8.74h.48Z"/>
      <path class="cls-6" d="M49.84,69.67c.11.7.25,1.31.45,1.95l-.38.23c-.23-.65-.35-1.17-.48-1.83-.19-.98-.26-1.65-.26-2.67s.07-1.7.26-2.67c.13-.66.25-1.18.48-1.83l.38.23c-.22.68-.34,1.25-.45,1.95-.11.68-.21,1.54-.21,2.32,0,.69.08,1.54.21,2.32Z"/>
      <path class="cls-6" d="M51.61,63.58l1.84,5.66,2.41-6.02,2.26,6.02,2.09-5.66h.48l-2.57,6.92-2.26-6.06-2.48,6.06-2.25-6.92h.48Z"/>
      <path class="cls-6" d="M61.11,68.26c0,1.04.76,1.72,1.62,1.72.66,0,1.16-.39,1.42-.93l.34.2c-.24.46-.78,1.11-1.79,1.11-1.27,0-2.01-.94-2.01-2.13,0-1.42.98-2.15,1.98-2.15,1.1,0,1.93.88,1.93,2.18h-3.49ZM64.18,67.88c-.1-.81-.7-1.42-1.51-1.42s-1.42.63-1.53,1.42h3.04Z"/>
      <path class="cls-6" d="M69.1,62.96h.4v7.29h-.4v-.73c-.41.63-1.06.84-1.58.84-1.03,0-2-.74-2-2.17s1.01-2.11,2-2.11c.74,0,1.26.34,1.58.8v-3.92ZM65.94,68.18c0,1.19.78,1.8,1.6,1.8s1.58-.61,1.58-1.8c0-.95-.59-1.72-1.6-1.72-.84,0-1.58.58-1.58,1.72Z"/>
      <path class="cls-6" d="M74.26,62.96h.4v7.29h-.4v-.73c-.41.63-1.06.84-1.58.84-1.03,0-2-.74-2-2.17s1.01-2.11,2-2.11c.74,0,1.26.34,1.58.8v-3.92ZM71.1,68.18c0,1.19.78,1.8,1.6,1.8s1.58-.61,1.58-1.8c0-.95-.59-1.72-1.6-1.72-.84,0-1.58.58-1.58,1.72Z"/>
      <path class="cls-6" d="M75.94,64.81c0-.22.16-.37.36-.37s.36.15.36.37-.16.37-.36.37-.36-.15-.36-.37ZM76.5,66.17v4.08h-.4v-4.08h.4Z"/>
      <path class="cls-6" d="M77.94,66.17h.4v.64c.19-.34.56-.73,1.25-.73.73,0,1.04.43,1.13.57.18.29.2.67.2,1.03v2.57h-.4v-2.57c0-.28-.01-.59-.16-.82-.09-.15-.31-.4-.8-.4-.56,0-.85.3-1,.57-.18.32-.22.7-.22,1.1v2.12h-.4v-4.08Z"/>
      <path class="cls-6" d="M86.12,66.17v3.96c0,1.54-.77,2.42-2.05,2.42-1.06,0-1.95-.62-2-1.75h.42c.07.85.71,1.37,1.58,1.37,1.61,0,1.65-1.62,1.65-2.04v-.58c-.41.57-1.03.81-1.61.81-1,0-2.01-.73-2.01-2.15,0-1.18.78-2.13,2.06-2.13.67,0,1.21.3,1.56.8v-.71h.4ZM82.52,68.23c0,.98.62,1.75,1.58,1.75,1.01,0,1.64-.79,1.64-1.79s-.62-1.73-1.62-1.73-1.6.83-1.6,1.77Z"/>
      <path class="cls-6" d="M90.29,72.55h-.4v-6.38h.4v.71c.39-.53.95-.8,1.6-.8,1.23,0,1.98.92,1.98,2.1s-.76,2.18-2,2.18c-1.01,0-1.46-.64-1.58-.84v3.03ZM93.45,68.18c0-1.12-.74-1.72-1.58-1.72s-1.6.57-1.6,1.7c0,1.02.56,1.82,1.59,1.82s1.59-.8,1.59-1.8Z"/>
      <path class="cls-6" d="M94.89,64.81c0-.22.16-.37.36-.37s.36.15.36.37-.16.37-.36.37-.36-.15-.36-.37ZM95.45,66.17v4.08h-.4v-4.08h.4Z"/>
      <path class="cls-6" d="M100.16,67.13c-.27-.31-.74-.67-1.41-.67-1,0-1.7.77-1.7,1.77,0,1.17.89,1.75,1.68,1.75.65,0,1.16-.38,1.48-.73v.54c-.27.24-.77.57-1.49.57-1.23,0-2.09-.91-2.09-2.12s.81-2.16,2.12-2.16c.29,0,.85.05,1.41.52v.53Z"/>
      <path class="cls-6" d="M101.71,62.96v4.96l1.68-1.75h.52l-1.72,1.77,2.28,2.31h-.54l-2.01-2.02-.21.21v1.81h-.4v-7.29h.4Z"/>
      <path class="cls-6" d="M105.46,66.17v2.46c0,.29.01.72.26,1.02.25.3.62.33.81.33s.56-.03.81-.33c.25-.3.26-.73.26-1.02v-2.46h.4v2.57c0,.33-.03.76-.31,1.12-.31.4-.8.5-1.16.5s-.85-.1-1.16-.5c-.28-.36-.31-.79-.31-1.12v-2.57h.4Z"/>
      <path class="cls-6" d="M109.84,72.55h-.4v-6.38h.4v.71c.39-.53.95-.8,1.6-.8,1.23,0,1.98.92,1.98,2.1s-.76,2.18-2,2.18c-1.01,0-1.46-.64-1.58-.84v3.03ZM113,68.18c0-1.12-.74-1.72-1.58-1.72s-1.6.57-1.6,1.7c0,1.02.56,1.82,1.59,1.82s1.59-.8,1.59-1.8Z"/>
      <path class="cls-6" d="M114.58,71.62c.2-.64.34-1.25.45-1.95.13-.78.21-1.63.21-2.32,0-.78-.1-1.64-.21-2.32-.11-.7-.23-1.27-.45-1.95l.38-.23c.23.65.35,1.17.48,1.83.19.97.26,1.64.26,2.67s-.07,1.69-.26,2.67c-.13.66-.25,1.18-.48,1.83l-.38-.23Z"/>
    </g>
    <g>
      <path class="cls-6" d="M102.54,508.42h-3.31v2.9h3.24v.48h-3.24v3.66h3.31v.48h-3.84v-8h3.84v.48Z"/>
      <path class="cls-6" d="M105.89,511.95c-.17-.38-.5-.55-.85-.55-.55,0-.83.42-.83.78,0,.48.38.64.86.83.49.19.95.32,1.26.72.2.25.25.52.25.79,0,1.12-.84,1.56-1.6,1.56-.82,0-1.49-.48-1.69-1.29l.47-.14c.17.65.68.98,1.22.98.62,0,1.09-.44,1.09-1.08,0-.55-.35-.75-1.09-1.05-.49-.2-.85-.36-1.07-.65-.11-.14-.22-.35-.22-.63,0-.74.56-1.26,1.31-1.26.58,0,1.06.26,1.28.79l-.41.22Z"/>
      <path class="cls-6" d="M108.33,511.5v4.44h-.48v-4.44h-.54v-.46h.54v-1.75h.48v1.75h.85v.46h-.85Z"/>
      <path class="cls-6" d="M114.12,511.05h.48v4.89h-.48v-.88c-.49.75-1.27,1.01-1.91,1.01-1.28,0-2.39-.97-2.39-2.58,0-1.51.96-2.55,2.39-2.55.77,0,1.44.3,1.91.96v-.85ZM110.33,513.46c0,1.1.68,2.16,1.92,2.16s1.9-1.03,1.9-2.16c0-1.45-1.07-2.06-1.91-2.06-.97,0-1.91.73-1.91,2.06Z"/>
      <path class="cls-6" d="M120.25,512.2c-.32-.37-.89-.8-1.69-.8-1.2,0-2.04.92-2.04,2.12,0,1.4,1.07,2.1,2.01,2.1.78,0,1.39-.46,1.77-.88v.65c-.32.29-.92.68-1.79.68-1.48,0-2.51-1.09-2.51-2.54s.97-2.59,2.54-2.59c.35,0,1.02.06,1.69.62v.64ZM118.88,516.78l-1.2,1.49-.34-.19.98-1.54.55.24Z"/>
      <path class="cls-6" d="M125.61,511.05h.48v4.89h-.48v-.88c-.49.75-1.27,1.01-1.91,1.01-1.28,0-2.39-.97-2.39-2.58,0-1.51.96-2.55,2.39-2.55.77,0,1.44.3,1.91.96v-.85ZM121.83,513.46c0,1.1.68,2.16,1.92,2.16s1.89-1.03,1.89-2.16c0-1.45-1.07-2.06-1.91-2.06-.97,0-1.91.73-1.91,2.06ZM122.47,509.87c.06-.17.16-.35.28-.46.16-.16.36-.23.55-.23.31,0,.67.18.86.26.23.1.38.16.56.16.14,0,.23-.04.32-.14.1-.12.17-.29.17-.3l.3.24c-.06.17-.17.35-.31.48-.17.14-.37.2-.54.2-.18,0-.38-.07-.7-.2-.29-.12-.49-.22-.71-.22-.13,0-.24.04-.34.14-.06.07-.12.19-.14.29l-.31-.23Z"/>
      <path class="cls-6" d="M132.65,513.51c0,1.45-1.12,2.57-2.57,2.57s-2.57-1.12-2.57-2.57,1.12-2.57,2.57-2.57,2.57,1.12,2.57,2.57ZM132.14,513.51c0-1.19-.89-2.11-2.06-2.11s-2.06.92-2.06,2.11.89,2.11,2.06,2.11,2.06-.92,2.06-2.11Z"/>
      <path class="cls-6" d="M140.31,508.42h-2.71v2.9h2.64v.48h-2.64v4.14h-.53v-8h3.24v.48Z"/>
      <path class="cls-6" d="M142.21,507.2v8.74h-.48v-8.74h.48Z"/>
      <path class="cls-6" d="M144.42,511.05v2.95c0,.35.01.86.31,1.22.3.36.74.4.97.4s.67-.04.97-.4c.3-.36.31-.88.31-1.22v-2.95h.48v3.08c0,.4-.04.91-.37,1.34-.37.48-.96.6-1.39.6s-1.02-.12-1.39-.6c-.34-.43-.37-.95-.37-1.34v-3.08h.48Z"/>
      <path class="cls-6" d="M148.96,511.05l1.73,4.07,1.7-4.07h.53l-2.23,5.19-2.25-5.19h.53Z"/>
      <path class="cls-6" d="M153.68,509.42c0-.26.19-.44.43-.44s.43.18.43.44-.19.44-.43.44-.43-.18-.43-.44ZM154.36,511.05v4.89h-.48v-4.89h.48Z"/>
      <path class="cls-6" d="M160.07,511.05h.48v4.89h-.48v-.88c-.49.75-1.27,1.01-1.91,1.01-1.28,0-2.39-.97-2.39-2.58,0-1.51.96-2.55,2.39-2.55.77,0,1.44.3,1.91.96v-.85ZM156.28,513.46c0,1.1.68,2.16,1.92,2.16s1.89-1.03,1.89-2.16c0-1.45-1.07-2.06-1.91-2.06-.97,0-1.91.73-1.91,2.06Z"/>
      <path class="cls-6" d="M162.76,507.2v8.74h-.48v-8.74h.48Z"/>
      <path class="cls-6" d="M171.14,509.3c-.49-.96-1.36-.98-1.57-.98-.95,0-1.49.68-1.49,1.49,0,.86.6,1.15,1.4,1.55.79.38,1.19.55,1.6.84.35.24.85.66.85,1.55,0,1.34-1.13,2.34-2.49,2.34-1.03,0-1.56-.49-1.86-.84-.31-.36-.44-.67-.52-.88l.46-.22c.11.31.31.62.43.77.36.46.95.68,1.5.68,1.08,0,1.93-.79,1.93-1.85,0-.43-.17-.89-.78-1.26-.23-.13-.7-.37-1.35-.7-.79-.38-1.19-.6-1.46-1.06-.18-.3-.25-.6-.25-.91,0-.92.62-1.99,2.05-1.99.8,0,1.54.38,1.94,1.14l-.38.32Z"/>
      <path class="cls-6" d="M173.93,511.05v2.95c0,.35.01.86.31,1.22.3.36.74.4.97.4s.67-.04.97-.4c.3-.36.31-.88.31-1.22v-2.95h.48v3.08c0,.4-.04.91-.37,1.34-.37.48-.96.6-1.39.6s-1.02-.12-1.39-.6c-.34-.43-.37-.95-.37-1.34v-3.08h.48Z"/>
      <path class="cls-6" d="M179.18,507.2v8.74h-.48v-8.74h.48Z"/>
      <path class="cls-6" d="M183.9,513.55c0,1.25.91,2.06,1.94,2.06.79,0,1.39-.47,1.7-1.12l.41.24c-.29.55-.94,1.33-2.15,1.33-1.52,0-2.41-1.13-2.41-2.55,0-1.7,1.18-2.58,2.37-2.58,1.32,0,2.31,1.06,2.31,2.61h-4.19ZM187.58,513.1c-.12-.97-.84-1.7-1.81-1.7s-1.7.75-1.83,1.7h3.65Z"/>
      <path class="cls-6" d="M196.16,509.3c-.49-.96-1.36-.98-1.57-.98-.95,0-1.49.68-1.49,1.49,0,.86.6,1.15,1.4,1.55.79.38,1.19.55,1.6.84.35.24.85.66.85,1.55,0,1.34-1.13,2.34-2.49,2.34-1.03,0-1.56-.49-1.86-.84-.31-.36-.44-.67-.52-.88l.46-.22c.11.31.31.62.43.77.36.46.95.68,1.5.68,1.08,0,1.93-.79,1.93-1.85,0-.43-.17-.89-.78-1.26-.23-.13-.7-.37-1.35-.7-.79-.38-1.19-.6-1.46-1.06-.18-.3-.25-.6-.25-.91,0-.92.62-1.99,2.05-1.99.8,0,1.54.38,1.94,1.14l-.38.32Z"/>
      <path class="cls-6" d="M198.95,511.05v2.95c0,.35.01.86.31,1.22.3.36.74.4.97.4s.67-.04.97-.4c.3-.36.31-.88.31-1.22v-2.95h.48v3.08c0,.4-.04.91-.37,1.34-.37.48-.96.6-1.39.6s-1.02-.12-1.39-.6c-.34-.43-.37-.95-.37-1.34v-3.08h.48Z"/>
      <path class="cls-6" d="M203.92,513.55c0,1.25.91,2.06,1.94,2.06.79,0,1.39-.47,1.7-1.12l.41.24c-.29.55-.94,1.33-2.15,1.33-1.52,0-2.41-1.13-2.41-2.55,0-1.7,1.18-2.58,2.37-2.58,1.32,0,2.31,1.06,2.31,2.61h-4.19ZM207.6,513.1c-.12-.97-.84-1.7-1.81-1.7s-1.7.75-1.83,1.7h3.65Z"/>
      <path class="cls-6" d="M211.61,511.95c-.17-.38-.5-.55-.85-.55-.55,0-.83.42-.83.78,0,.48.38.64.86.83.49.19.95.32,1.26.72.2.25.25.52.25.79,0,1.12-.84,1.56-1.6,1.56-.82,0-1.49-.48-1.69-1.29l.47-.14c.17.65.68.98,1.22.98.62,0,1.09-.44,1.09-1.08,0-.55-.35-.75-1.09-1.05-.49-.2-.85-.36-1.07-.65-.11-.14-.22-.35-.22-.63,0-.74.56-1.26,1.31-1.26.58,0,1.06.26,1.28.79l-.41.22Z"/>
      <path class="cls-6" d="M214.04,511.5v4.44h-.48v-4.44h-.54v-.46h.54v-1.75h.48v1.75h.85v.46h-.85Z"/>
      <path class="cls-6" d="M216.05,513.55c0,1.25.91,2.06,1.94,2.06.79,0,1.39-.47,1.7-1.12l.41.24c-.29.55-.94,1.33-2.15,1.33-1.52,0-2.41-1.13-2.41-2.55,0-1.7,1.18-2.58,2.37-2.58,1.32,0,2.31,1.06,2.31,2.61h-4.19ZM219.73,513.1c-.12-.97-.84-1.7-1.81-1.7s-1.7.75-1.83,1.7h3.65Z"/>
      <path class="cls-6" d="M146.7,527.36c.11.7.25,1.31.45,1.95l-.38.23c-.23-.65-.35-1.17-.48-1.83-.19-.98-.26-1.65-.26-2.67s.07-1.7.26-2.67c.13-.66.25-1.18.48-1.83l.38.23c-.22.68-.34,1.25-.45,1.95-.11.68-.21,1.54-.21,2.32,0,.69.08,1.54.21,2.32Z"/>
      <path class="cls-6" d="M151.79,522.4c-.41-.8-1.13-.82-1.31-.82-.79,0-1.24.57-1.24,1.24,0,.72.5.96,1.17,1.29.66.32.99.46,1.33.7.29.2.71.55.71,1.29,0,1.12-.94,1.95-2.08,1.95-.86,0-1.3-.41-1.55-.7-.26-.3-.37-.56-.43-.73l.38-.18c.09.26.26.52.36.64.3.38.79.57,1.25.57.9,0,1.61-.66,1.61-1.54,0-.36-.14-.74-.65-1.05-.19-.11-.58-.31-1.13-.58-.66-.32-.99-.5-1.22-.88-.15-.25-.21-.5-.21-.76,0-.77.52-1.66,1.71-1.66.67,0,1.28.32,1.62.95l-.32.27Z"/>
      <path class="cls-6" d="M154.11,523.86v2.46c0,.29.01.72.26,1.02.25.3.62.33.81.33s.56-.03.81-.33c.25-.3.26-.73.26-1.02v-2.46h.4v2.57c0,.33-.03.76-.31,1.12-.31.4-.8.5-1.16.5s-.85-.1-1.16-.5c-.28-.36-.31-.79-.31-1.12v-2.57h.4Z"/>
      <path class="cls-6" d="M158.09,523.86h.4v.64c.19-.34.56-.73,1.25-.73.73,0,1.04.43,1.13.57.18.29.2.67.2,1.03v2.57h-.4v-2.57c0-.28-.01-.59-.16-.82-.09-.15-.31-.4-.8-.4-.56,0-.85.3-1,.57-.18.32-.22.7-.22,1.1v2.12h-.4v-4.08Z"/>
      <path class="cls-6" d="M164.25,524.61c-.14-.32-.42-.46-.71-.46-.46,0-.69.35-.69.65,0,.4.32.53.72.69.41.16.79.27,1.05.6.17.21.21.43.21.66,0,.93-.7,1.3-1.33,1.3-.68,0-1.24-.4-1.41-1.08l.39-.12c.14.54.57.82,1.02.82.52,0,.91-.37.91-.9,0-.46-.29-.63-.91-.88-.41-.17-.71-.3-.89-.54-.09-.12-.18-.29-.18-.53,0-.62.47-1.05,1.09-1.05.48,0,.88.22,1.07.66l-.34.18Z"/>
      <path class="cls-6" d="M166.01,525.95c0,1.04.76,1.72,1.62,1.72.66,0,1.16-.39,1.42-.93l.34.2c-.24.46-.78,1.11-1.79,1.11-1.27,0-2.01-.94-2.01-2.13,0-1.42.98-2.15,1.98-2.15,1.1,0,1.93.88,1.93,2.18h-3.49ZM169.08,525.57c-.1-.81-.7-1.42-1.51-1.42s-1.42.63-1.53,1.42h3.04Z"/>
      <path class="cls-6" d="M171.11,524.24v3.7h-.4v-3.7h-.45v-.38h.45v-1.46h.4v1.46h.71v.38h-.71Z"/>
      <path class="cls-6" d="M177.93,527.94l-2.16-3.15h-.2v3.15h-.44v-6.67h.96c.51,0,.97.04,1.41.34.52.36.69.91.69,1.43,0,.66-.29,1.34-1.12,1.62-.35.12-.67.13-.82.13l2.18,3.15h-.5ZM175.57,524.39h.64c.95,0,1.52-.5,1.52-1.36,0-.67-.33-1.02-.59-1.16-.28-.16-.76-.2-1.02-.2h-.55v2.72Z"/>
      <path class="cls-6" d="M179.47,522.5c0-.22.16-.37.36-.37s.36.15.36.37-.16.37-.36.37-.36-.15-.36-.37ZM180.03,523.86v4.08h-.4v-4.08h.4Z"/>
      <path class="cls-6" d="M181.27,523.86l1.44,3.39,1.42-3.39h.44l-1.86,4.33-1.88-4.33h.44Z"/>
      <path class="cls-6" d="M185.53,525.95c0,1.04.76,1.72,1.62,1.72.66,0,1.16-.39,1.42-.93l.34.2c-.24.46-.78,1.11-1.79,1.11-1.27,0-2.01-.94-2.01-2.13,0-1.42.98-2.15,1.98-2.15,1.1,0,1.93.88,1.93,2.18h-3.49ZM188.6,525.57c-.1-.81-.7-1.42-1.51-1.42s-1.42.63-1.53,1.42h3.04Z"/>
      <path class="cls-6" d="M190.2,523.86h.4v.53c.15-.35.46-.62.9-.62.11,0,.28.02.43.1l-.2.36s-.12-.08-.3-.08c-.82,0-.83,1.09-.83,1.6v2.19h-.4v-4.08Z"/>
      <path class="cls-6" d="M200.64,522.63c-.57-.67-1.39-1.05-2.25-1.05-1.71,0-2.99,1.37-2.99,3.06,0,1.98,1.65,3.01,3,3.01.67,0,1.56-.27,2.24-1.01v.58c-.68.6-1.5.83-2.22.83-2,0-3.48-1.57-3.48-3.43s1.54-3.44,3.46-3.44c1.27,0,2.04.68,2.24.87v.58Z"/>
      <path class="cls-6" d="M201.91,523.86h.4v.53c.15-.35.46-.62.9-.62.11,0,.28.02.43.1l-.2.36s-.12-.08-.3-.08c-.82,0-.83,1.09-.83,1.6v2.19h-.4v-4.08Z"/>
      <path class="cls-6" d="M204.7,523.86v2.46c0,.29.01.72.26,1.02.25.3.62.33.81.33s.56-.03.81-.33c.25-.3.26-.73.26-1.02v-2.46h.4v2.57c0,.33-.03.76-.31,1.12-.31.4-.8.5-1.16.5s-.85-.1-1.16-.5c-.28-.36-.31-.79-.31-1.12v-2.57h.4Z"/>
      <path class="cls-6" d="M208.52,522.5c0-.22.16-.37.36-.37s.36.15.36.37-.16.37-.36.37-.36-.15-.36-.37ZM209.08,523.86v4.08h-.4v-4.08h.4Z"/>
      <path class="cls-6" d="M212.26,524.61c-.14-.32-.42-.46-.71-.46-.46,0-.69.35-.69.65,0,.4.32.53.72.69.41.16.79.27,1.05.6.17.21.21.43.21.66,0,.93-.7,1.3-1.33,1.3-.68,0-1.24-.4-1.41-1.08l.39-.12c.14.54.57.82,1.02.82.52,0,.91-.37.91-.9,0-.46-.29-.63-.91-.88-.41-.17-.71-.3-.89-.54-.09-.12-.18-.29-.18-.53,0-.62.47-1.05,1.09-1.05.48,0,.88.22,1.07.66l-.34.18Z"/>
      <path class="cls-6" d="M214.02,525.95c0,1.04.76,1.72,1.62,1.72.66,0,1.16-.39,1.42-.93l.34.2c-.24.46-.78,1.11-1.79,1.11-1.27,0-2.01-.94-2.01-2.13,0-1.42.98-2.15,1.98-2.15,1.1,0,1.93.88,1.93,2.18h-3.49ZM217.08,525.57c-.1-.81-.7-1.42-1.51-1.42s-1.42.63-1.53,1.42h3.04Z"/>
      <path class="cls-6" d="M218.67,529.31c.2-.64.34-1.25.45-1.95.13-.78.21-1.63.21-2.32,0-.78-.1-1.64-.21-2.32-.11-.7-.23-1.27-.45-1.95l.38-.23c.23.65.35,1.17.48,1.83.19.97.26,1.64.26,2.67s-.07,1.69-.26,2.67c-.13.66-.25,1.18-.48,1.83l-.38-.23Z"/>
    </g>
  </g>
</svg>